<svg width="107" height="27" viewBox="0 0 107 27" fill="none" xmlns="http://www.w3.org/2000/svg">
<path d="M7.93933 20.18C6.95533 20.18 6.04933 20.024 5.22133 19.712C4.40533 19.388 3.69133 18.938 3.07933 18.362C2.46733 17.774 1.99333 17.084 1.65733 16.292C1.32133 15.5 1.15333 14.636 1.15333 13.7C1.15333 12.764 1.32133 11.9 1.65733 11.108C1.99333 10.316 2.46733 9.632 3.07933 9.056C3.70333 8.468 4.42933 8.018 5.25733 7.706C6.08533 7.382 6.99133 7.22 7.97533 7.22C9.04333 7.22 10.0033 7.394 10.8553 7.742C11.7193 8.09 12.4453 8.6 13.0333 9.272L11.5573 10.712C11.0653 10.22 10.5313 9.86 9.95533 9.632C9.39133 9.392 8.76733 9.272 8.08333 9.272C7.42333 9.272 6.81133 9.38 6.24733 9.596C5.68333 9.812 5.19733 10.118 4.78933 10.514C4.38133 10.91 4.06333 11.378 3.83533 11.918C3.61933 12.458 3.51133 13.052 3.51133 13.7C3.51133 14.336 3.61933 14.924 3.83533 15.464C4.06333 16.004 4.38133 16.478 4.78933 16.886C5.19733 17.282 5.67733 17.588 6.22933 17.804C6.78133 18.02 7.39333 18.128 8.06533 18.128C8.68933 18.128 9.28933 18.032 9.86533 17.84C10.4533 17.636 11.0113 17.3 11.5393 16.832L12.8713 18.578C12.2113 19.106 11.4433 19.508 10.5673 19.784C9.70333 20.048 8.82733 20.18 7.93933 20.18ZM10.6573 18.272V13.556H12.8713V18.578L10.6573 18.272ZM20.2596 20.126C19.1916 20.126 18.2556 19.916 17.4516 19.496C16.6596 19.064 16.0416 18.476 15.5976 17.732C15.1656 16.988 14.9496 16.142 14.9496 15.194C14.9496 14.234 15.1596 13.388 15.5796 12.656C16.0116 11.912 16.5996 11.33 17.3436 10.91C18.0996 10.49 18.9576 10.28 19.9176 10.28C20.8536 10.28 21.6876 10.484 22.4196 10.892C23.1516 11.3 23.7276 11.876 24.1476 12.62C24.5676 13.364 24.7776 14.24 24.7776 15.248C24.7776 15.344 24.7716 15.452 24.7596 15.572C24.7596 15.692 24.7536 15.806 24.7416 15.914H16.7316V14.42H23.5536L22.6716 14.888C22.6836 14.336 22.5696 13.85 22.3296 13.43C22.0896 13.01 21.7596 12.68 21.3396 12.44C20.9316 12.2 20.4576 12.08 19.9176 12.08C19.3656 12.08 18.8796 12.2 18.4596 12.44C18.0516 12.68 17.7276 13.016 17.4876 13.448C17.2596 13.868 17.1456 14.366 17.1456 14.942V15.302C17.1456 15.878 17.2776 16.388 17.5416 16.832C17.8056 17.276 18.1776 17.618 18.6576 17.858C19.1376 18.098 19.6896 18.218 20.3136 18.218C20.8536 18.218 21.3396 18.134 21.7716 17.966C22.2036 17.798 22.5876 17.534 22.9236 17.174L24.1296 18.56C23.6976 19.064 23.1516 19.454 22.4916 19.73C21.8436 19.994 21.0996 20.126 20.2596 20.126ZM30.5569 20.126C29.5009 20.126 28.6849 19.856 28.1089 19.316C27.5329 18.764 27.2449 17.954 27.2449 16.886V8.264H29.4949V16.832C29.4949 17.288 29.6089 17.642 29.8369 17.894C30.0769 18.146 30.4069 18.272 30.8269 18.272C31.3309 18.272 31.7509 18.14 32.0869 17.876L32.7169 19.478C32.4529 19.694 32.1289 19.856 31.7449 19.964C31.3609 20.072 30.9649 20.126 30.5569 20.126ZM25.6609 12.26V10.46H32.0689V12.26H25.6609ZM43.6644 20.18C42.6804 20.18 41.7384 20.042 40.8384 19.766C39.9384 19.478 39.2244 19.112 38.6964 18.668L39.5064 16.85C40.0104 17.246 40.6344 17.576 41.3784 17.84C42.1224 18.104 42.8844 18.236 43.6644 18.236C44.3244 18.236 44.8584 18.164 45.2664 18.02C45.6744 17.876 45.9744 17.684 46.1664 17.444C46.3584 17.192 46.4544 16.91 46.4544 16.598C46.4544 16.214 46.3164 15.908 46.0404 15.68C45.7644 15.44 45.4044 15.254 44.9604 15.122C44.5284 14.978 44.0424 14.846 43.5024 14.726C42.9744 14.606 42.4404 14.468 41.9004 14.312C41.3724 14.144 40.8864 13.934 40.4424 13.682C40.0104 13.418 39.6564 13.07 39.3804 12.638C39.1044 12.206 38.9664 11.654 38.9664 10.982C38.9664 10.298 39.1464 9.674 39.5064 9.11C39.8784 8.534 40.4364 8.078 41.1804 7.742C41.9364 7.394 42.8904 7.22 44.0424 7.22C44.7984 7.22 45.5484 7.316 46.2924 7.508C47.0364 7.7 47.6844 7.976 48.2364 8.336L47.4984 10.154C46.9344 9.818 46.3524 9.572 45.7524 9.416C45.1524 9.248 44.5764 9.164 44.0244 9.164C43.3764 9.164 42.8484 9.242 42.4404 9.398C42.0444 9.554 41.7504 9.758 41.5584 10.01C41.3784 10.262 41.2884 10.55 41.2884 10.874C41.2884 11.258 41.4204 11.57 41.6844 11.81C41.9604 12.038 42.3144 12.218 42.7464 12.35C43.1904 12.482 43.6824 12.614 44.2224 12.746C44.7624 12.866 45.2964 13.004 45.8244 13.16C46.3644 13.316 46.8504 13.52 47.2824 13.772C47.7264 14.024 48.0804 14.366 48.3444 14.798C48.6204 15.23 48.7584 15.776 48.7584 16.436C48.7584 17.108 48.5724 17.732 48.2004 18.308C47.8404 18.872 47.2824 19.328 46.5264 19.676C45.7704 20.012 44.8164 20.18 43.6644 20.18ZM54.4807 20.126C53.4247 20.126 52.6087 19.856 52.0327 19.316C51.4567 18.764 51.1687 17.954 51.1687 16.886V8.264H53.4187V16.832C53.4187 17.288 53.5327 17.642 53.7607 17.894C54.0007 18.146 54.3307 18.272 54.7507 18.272C55.2547 18.272 55.6747 18.14 56.0107 17.876L56.6407 19.478C56.3767 19.694 56.0527 19.856 55.6687 19.964C55.2847 20.072 54.8887 20.126 54.4807 20.126ZM49.5847 12.26V10.46H55.9927V12.26H49.5847ZM64.4136 20V18.056L64.2876 17.642V14.24C64.2876 13.58 64.0896 13.07 63.6936 12.71C63.2976 12.338 62.6976 12.152 61.8936 12.152C61.3536 12.152 60.8196 12.236 60.2916 12.404C59.7756 12.572 59.3376 12.806 58.9776 13.106L58.0956 11.468C58.6116 11.072 59.2236 10.778 59.9316 10.586C60.6516 10.382 61.3956 10.28 62.1636 10.28C63.5556 10.28 64.6296 10.616 65.3856 11.288C66.1536 11.948 66.5376 12.974 66.5376 14.366V20H64.4136ZM61.3896 20.126C60.6696 20.126 60.0396 20.006 59.4996 19.766C58.9596 19.514 58.5396 19.172 58.2396 18.74C57.9516 18.296 57.8076 17.798 57.8076 17.246C57.8076 16.706 57.9336 16.22 58.1856 15.788C58.4496 15.356 58.8756 15.014 59.4636 14.762C60.0516 14.51 60.8316 14.384 61.8036 14.384H64.5936V15.878H61.9656C61.1976 15.878 60.6816 16.004 60.4176 16.256C60.1536 16.496 60.0216 16.796 60.0216 17.156C60.0216 17.564 60.1836 17.888 60.5076 18.128C60.8316 18.368 61.2816 18.488 61.8576 18.488C62.4096 18.488 62.9016 18.362 63.3336 18.11C63.7776 17.858 64.0956 17.486 64.2876 16.994L64.6656 18.344C64.4496 18.908 64.0596 19.346 63.4956 19.658C62.9436 19.97 62.2416 20.126 61.3896 20.126ZM69.4252 20V10.388H71.5672V13.034L71.3152 12.26C71.6032 11.612 72.0532 11.12 72.6652 10.784C73.2892 10.448 74.0632 10.28 74.9872 10.28V12.422C74.8912 12.398 74.8012 12.386 74.7172 12.386C74.6332 12.374 74.5492 12.368 74.4652 12.368C73.6132 12.368 72.9352 12.62 72.4312 13.124C71.9272 13.616 71.6752 14.354 71.6752 15.338V20H69.4252ZM80.8655 20.126C79.8095 20.126 78.9935 19.856 78.4175 19.316C77.8415 18.764 77.5535 17.954 77.5535 16.886V8.264H79.8035V16.832C79.8035 17.288 79.9175 17.642 80.1455 17.894C80.3855 18.146 80.7155 18.272 81.1355 18.272C81.6395 18.272 82.0595 18.14 82.3955 17.876L83.0255 19.478C82.7615 19.694 82.4375 19.856 82.0535 19.964C81.6695 20.072 81.2735 20.126 80.8655 20.126ZM75.9695 12.26V10.46H82.3775V12.26H75.9695ZM89.078 20.126C88.01 20.126 87.074 19.916 86.27 19.496C85.478 19.064 84.86 18.476 84.416 17.732C83.984 16.988 83.768 16.142 83.768 15.194C83.768 14.234 83.978 13.388 84.398 12.656C84.83 11.912 85.418 11.33 86.162 10.91C86.918 10.49 87.776 10.28 88.736 10.28C89.672 10.28 90.506 10.484 91.238 10.892C91.97 11.3 92.546 11.876 92.966 12.62C93.386 13.364 93.596 14.24 93.596 15.248C93.596 15.344 93.59 15.452 93.578 15.572C93.578 15.692 93.572 15.806 93.56 15.914H85.55V14.42H92.372L91.49 14.888C91.502 14.336 91.388 13.85 91.148 13.43C90.908 13.01 90.578 12.68 90.158 12.44C89.75 12.2 89.276 12.08 88.736 12.08C88.184 12.08 87.698 12.2 87.278 12.44C86.87 12.68 86.546 13.016 86.306 13.448C86.078 13.868 85.964 14.366 85.964 14.942V15.302C85.964 15.878 86.096 16.388 86.36 16.832C86.624 17.276 86.996 17.618 87.476 17.858C87.956 18.098 88.508 18.218 89.132 18.218C89.672 18.218 90.158 18.134 90.59 17.966C91.022 17.798 91.406 17.534 91.742 17.174L92.948 18.56C92.516 19.064 91.97 19.454 91.31 19.73C90.662 19.994 89.918 20.126 89.078 20.126ZM99.8253 20.126C98.9013 20.126 98.0673 19.922 97.3233 19.514C96.5913 19.094 96.0153 18.518 95.5953 17.786C95.1753 17.054 94.9653 16.19 94.9653 15.194C94.9653 14.198 95.1753 13.334 95.5953 12.602C96.0153 11.87 96.5913 11.3 97.3233 10.892C98.0673 10.484 98.9013 10.28 99.8253 10.28C100.629 10.28 101.349 10.46 101.985 10.82C102.621 11.168 103.125 11.702 103.497 12.422C103.869 13.142 104.055 14.066 104.055 15.194C104.055 16.31 103.875 17.234 103.515 17.966C103.155 18.686 102.657 19.226 102.021 19.586C101.385 19.946 100.653 20.126 99.8253 20.126ZM100.095 18.2C100.635 18.2 101.115 18.08 101.535 17.84C101.967 17.6 102.309 17.252 102.561 16.796C102.825 16.34 102.957 15.806 102.957 15.194C102.957 14.57 102.825 14.036 102.561 13.592C102.309 13.136 101.967 12.788 101.535 12.548C101.115 12.308 100.635 12.188 100.095 12.188C99.5553 12.188 99.0693 12.308 98.6373 12.548C98.2173 12.788 97.8753 13.136 97.6113 13.592C97.3593 14.036 97.2333 14.57 97.2333 15.194C97.2333 15.806 97.3593 16.34 97.6113 16.796C97.8753 17.252 98.2173 17.6 98.6373 17.84C99.0693 18.08 99.5553 18.2 100.095 18.2ZM103.011 20V17.732L103.101 15.176L102.921 12.62V6.644H105.153V20H103.011Z" fill="#F83758"/>
</svg>
