<svg width="65" height="27" viewBox="0 0 65 27" fill="none" xmlns="http://www.w3.org/2000/svg">
<path d="M12.9654 20V7.4H14.8914L22.7934 17.102H21.8394V7.4H24.1614V20H22.2354L14.3334 10.298H15.2874V20H12.9654ZM31.8397 20.126C30.7717 20.126 29.8357 19.916 29.0317 19.496C28.2397 19.064 27.6217 18.476 27.1777 17.732C26.7457 16.988 26.5297 16.142 26.5297 15.194C26.5297 14.234 26.7397 13.388 27.1597 12.656C27.5917 11.912 28.1797 11.33 28.9237 10.91C29.6797 10.49 30.5377 10.28 31.4977 10.28C32.4337 10.28 33.2677 10.484 33.9997 10.892C34.7317 11.3 35.3077 11.876 35.7277 12.62C36.1477 13.364 36.3577 14.24 36.3577 15.248C36.3577 15.344 36.3517 15.452 36.3397 15.572C36.3397 15.692 36.3337 15.806 36.3217 15.914H28.3117V14.42H35.1337L34.2517 14.888C34.2637 14.336 34.1497 13.85 33.9097 13.43C33.6697 13.01 33.3397 12.68 32.9197 12.44C32.5117 12.2 32.0377 12.08 31.4977 12.08C30.9457 12.08 30.4597 12.2 30.0397 12.44C29.6317 12.68 29.3077 13.016 29.0677 13.448C28.8397 13.868 28.7257 14.366 28.7257 14.942V15.302C28.7257 15.878 28.8577 16.388 29.1217 16.832C29.3857 17.276 29.7577 17.618 30.2377 17.858C30.7177 18.098 31.2697 18.218 31.8937 18.218C32.4337 18.218 32.9197 18.134 33.3517 17.966C33.7837 17.798 34.1677 17.534 34.5037 17.174L35.7097 18.56C35.2777 19.064 34.7317 19.454 34.0717 19.73C33.4237 19.994 32.6797 20.126 31.8397 20.126ZM36.9413 20L41.1713 14.492L41.1353 15.698L37.1033 10.388H39.6053L42.4313 14.168H41.4773L44.3213 10.388H46.7513L42.6833 15.698L42.7013 14.492L46.9133 20H44.3753L41.4053 15.986L42.3413 16.112L39.4253 20H36.9413ZM52.1917 20.126C51.1357 20.126 50.3197 19.856 49.7437 19.316C49.1677 18.764 48.8797 17.954 48.8797 16.886V8.264H51.1297V16.832C51.1297 17.288 51.2437 17.642 51.4717 17.894C51.7117 18.146 52.0417 18.272 52.4617 18.272C52.9657 18.272 53.3857 18.14 53.7217 17.876L54.3517 19.478C54.0877 19.694 53.7637 19.856 53.3797 19.964C52.9957 20.072 52.5997 20.126 52.1917 20.126ZM47.2957 12.26V10.46H53.7037V12.26H47.2957Z" fill="#F83758"/>
</svg>
