<svg width="24" height="17" viewBox="0 0 24 17" fill="none" xmlns="http://www.w3.org/2000/svg">
<path d="M2.66399 15.156V3.456L3.68999 4.518H-1.24443e-05V2.556H5.00399V15.156H2.66399Z" fill="black"/>
<path d="M6.17146 16.956L12.1115 -2.98023e-06H14.1275L8.18746 16.956H6.17146ZM18.1431 15.336C17.2551 15.336 16.3851 15.21 15.5331 14.958C14.6931 14.694 13.9851 14.334 13.4091 13.878L14.4171 12.06C14.8731 12.432 15.4251 12.732 16.0731 12.96C16.7211 13.188 17.3991 13.302 18.1071 13.302C18.9471 13.302 19.6011 13.134 20.0691 12.798C20.5371 12.45 20.7711 11.982 20.7711 11.394C20.7711 10.818 20.5551 10.362 20.1231 10.026C19.6911 9.69 18.9951 9.522 18.0351 9.522H16.8831V7.92L20.4831 3.636L20.7891 4.518H14.0211V2.556H22.6071V4.122L19.0071 8.406L17.7831 7.686H18.4851C20.0331 7.686 21.1911 8.034 21.9591 8.73C22.7391 9.414 23.1291 10.296 23.1291 11.376C23.1291 12.084 22.9491 12.738 22.5891 13.338C22.2291 13.938 21.6771 14.424 20.9331 14.796C20.2011 15.156 19.2711 15.336 18.1431 15.336Z" fill="#A0A0A2"/>
</svg>
