<svg width="40" height="13" viewBox="0 0 40 13" fill="none" xmlns="http://www.w3.org/2000/svg">
<path d="M-1.65254e-05 12.6V-2.52724e-05H5.18398C6.29998 -2.52724e-05 7.25398 0.179975 8.04598 0.539975C8.84998 0.899975 9.46798 1.41597 9.89998 2.08797C10.332 2.75998 10.548 3.55798 10.548 4.48197C10.548 5.40598 10.332 6.20398 9.89998 6.87598C9.46798 7.54798 8.84998 8.06398 8.04598 8.42398C7.25398 8.78398 6.29998 8.96398 5.18398 8.96398H1.29598L2.33998 7.86598V12.6H-1.65254e-05ZM2.33998 8.11798L1.29598 6.98398H5.07598C6.10798 6.98398 6.88198 6.76798 7.39798 6.33598C7.92598 5.89198 8.18998 5.27398 8.18998 4.48197C8.18998 3.67798 7.92598 3.05998 7.39798 2.62798C6.88198 2.19598 6.10798 1.97997 5.07598 1.97997H1.29598L2.33998 0.827975V8.11798ZM12.5809 12.6V2.98797H14.7229V5.63398L14.4709 4.85998C14.7589 4.21198 15.2089 3.71998 15.8209 3.38398C16.4449 3.04798 17.2189 2.87998 18.1429 2.87998V5.02197C18.0469 4.99798 17.9569 4.98598 17.8729 4.98598C17.7889 4.97398 17.7049 4.96798 17.6209 4.96798C16.7689 4.96798 16.0909 5.21998 15.5869 5.72398C15.0829 6.21598 14.8309 6.95398 14.8309 7.93798V12.6H12.5809ZM24.4817 12.726C23.4137 12.726 22.4777 12.516 21.6737 12.096C20.8817 11.664 20.2637 11.076 19.8197 10.332C19.3877 9.58798 19.1717 8.74198 19.1717 7.79398C19.1717 6.83398 19.3817 5.98798 19.8017 5.25598C20.2337 4.51198 20.8217 3.92998 21.5657 3.50998C22.3217 3.08998 23.1797 2.87998 24.1397 2.87998C25.0757 2.87998 25.9097 3.08398 26.6417 3.49197C27.3737 3.89997 27.9497 4.47598 28.3697 5.21998C28.7897 5.96398 28.9997 6.83998 28.9997 7.84798C28.9997 7.94398 28.9937 8.05198 28.9817 8.17198C28.9817 8.29198 28.9757 8.40598 28.9637 8.51398H20.9537V7.01998H27.7757L26.8937 7.48798C26.9057 6.93598 26.7917 6.44998 26.5517 6.02998C26.3117 5.60998 25.9817 5.27998 25.5617 5.03998C25.1537 4.79998 24.6797 4.67998 24.1397 4.67998C23.5877 4.67998 23.1017 4.79998 22.6817 5.03998C22.2737 5.27998 21.9497 5.61598 21.7097 6.04798C21.4817 6.46798 21.3677 6.96598 21.3677 7.54198V7.90198C21.3677 8.47798 21.4997 8.98798 21.7637 9.43198C22.0277 9.87598 22.3997 10.218 22.8797 10.458C23.3597 10.698 23.9117 10.818 24.5357 10.818C25.0757 10.818 25.5617 10.734 25.9937 10.566C26.4257 10.398 26.8097 10.134 27.1457 9.77398L28.3517 11.16C27.9197 11.664 27.3737 12.054 26.7137 12.33C26.0657 12.594 25.3217 12.726 24.4817 12.726ZM33.5412 12.6L29.4192 2.98797H31.7592L35.3052 11.466H34.1532L37.8252 2.98797H39.9852L35.8632 12.6H33.5412Z" fill="#C4C4C4"/>
</svg>
