<svg width="40" height="18" viewBox="0 0 40 18" fill="none" xmlns="http://www.w3.org/2000/svg">
<path d="M4.968 14.076C3.984 14.076 3.042 13.938 2.142 13.662C1.242 13.374 0.527995 13.008 -4.88013e-06 12.564L0.809995 10.746C1.314 11.142 1.938 11.472 2.682 11.736C3.426 12 4.188 12.132 4.968 12.132C5.628 12.132 6.162 12.06 6.57 11.916C6.978 11.772 7.278 11.58 7.47 11.34C7.662 11.088 7.758 10.806 7.758 10.494C7.758 10.11 7.62 9.804 7.344 9.576C7.068 9.336 6.708 9.15 6.264 9.018C5.832 8.874 5.346 8.742 4.806 8.622C4.278 8.502 3.744 8.364 3.204 8.208C2.676 8.04 2.19 7.83 1.746 7.578C1.314 7.314 0.959995 6.966 0.683995 6.534C0.407995 6.102 0.269995 5.55 0.269995 4.878C0.269995 4.194 0.449995 3.57 0.809995 3.006C1.182 2.43 1.74 1.974 2.484 1.638C3.24 1.29 4.194 1.116 5.346 1.116C6.102 1.116 6.852 1.212 7.596 1.404C8.34 1.596 8.988 1.872 9.54 2.232L8.802 4.05C8.238 3.714 7.656 3.468 7.056 3.312C6.456 3.144 5.88 3.06 5.328 3.06C4.68 3.06 4.152 3.138 3.744 3.294C3.348 3.45 3.054 3.654 2.862 3.906C2.682 4.158 2.592 4.446 2.592 4.77C2.592 5.154 2.724 5.466 2.988 5.706C3.264 5.934 3.618 6.114 4.05 6.246C4.494 6.378 4.986 6.51 5.526 6.642C6.066 6.762 6.6 6.9 7.128 7.056C7.668 7.212 8.154 7.416 8.586 7.668C9.03 7.92 9.384 8.262 9.648 8.694C9.924 9.126 10.062 9.672 10.062 10.332C10.062 11.004 9.876 11.628 9.504 12.204C9.144 12.768 8.586 13.224 7.83 13.572C7.074 13.908 6.12 14.076 4.968 14.076ZM14.0023 11.754L14.0563 8.928L19.0783 4.284H21.7783L17.5123 8.568L16.3243 9.558L14.0023 11.754ZM12.1663 13.896V0.540003H14.4163V13.896H12.1663ZM19.4203 13.896L15.9103 9.558L17.3323 7.758L22.1563 13.896H19.4203ZM23.6097 13.896V4.284H25.8597V13.896H23.6097ZM24.7437 2.7C24.3237 2.7 23.9757 2.568 23.6997 2.304C23.4357 2.04 23.3037 1.722 23.3037 1.35C23.3037 0.966003 23.4357 0.648003 23.6997 0.396003C23.9757 0.132003 24.3237 3.45707e-06 24.7437 3.45707e-06C25.1637 3.45707e-06 25.5057 0.126003 25.7697 0.378003C26.0457 0.618003 26.1837 0.924003 26.1837 1.296C26.1837 1.692 26.0517 2.028 25.7877 2.304C25.5237 2.568 25.1757 2.7 24.7437 2.7ZM34.1408 14.022C33.3608 14.022 32.6468 13.842 31.9988 13.482C31.3628 13.122 30.8528 12.582 30.4688 11.862C30.0968 11.13 29.9108 10.206 29.9108 9.09C29.9108 7.962 30.0908 7.038 30.4508 6.318C30.8228 5.598 31.3268 5.064 31.9628 4.716C32.5988 4.356 33.3248 4.176 34.1408 4.176C35.0888 4.176 35.9228 4.38 36.6428 4.788C37.3748 5.196 37.9508 5.766 38.3708 6.498C38.8028 7.23 39.0188 8.094 39.0188 9.09C39.0188 10.086 38.8028 10.956 38.3708 11.7C37.9508 12.432 37.3748 13.002 36.6428 13.41C35.9228 13.818 35.0888 14.022 34.1408 14.022ZM28.8128 17.388V4.284H30.9548V6.552L30.8828 9.108L31.0628 11.664V17.388H28.8128ZM33.8888 12.096C34.4288 12.096 34.9088 11.976 35.3288 11.736C35.7608 11.496 36.1028 11.148 36.3548 10.692C36.6068 10.236 36.7328 9.702 36.7328 9.09C36.7328 8.466 36.6068 7.932 36.3548 7.488C36.1028 7.032 35.7608 6.684 35.3288 6.444C34.9088 6.204 34.4288 6.084 33.8888 6.084C33.3488 6.084 32.8628 6.204 32.4308 6.444C31.9988 6.684 31.6568 7.032 31.4048 7.488C31.1528 7.932 31.0268 8.466 31.0268 9.09C31.0268 9.702 31.1528 10.236 31.4048 10.692C31.6568 11.148 31.9988 11.496 32.4308 11.736C32.8628 11.976 33.3488 12.096 33.8888 12.096Z" fill="black"/>
</svg>
