<svg width="27" height="17" viewBox="0 0 27 17" fill="none" xmlns="http://www.w3.org/2000/svg">
<path d="M4.73406 15.336C3.84606 15.336 2.97606 15.21 2.12406 14.958C1.28406 14.694 0.576056 14.334 5.56649e-05 13.878L1.00806 12.06C1.46406 12.432 2.01606 12.732 2.66406 12.96C3.31206 13.188 3.99006 13.302 4.69806 13.302C5.53806 13.302 6.19206 13.134 6.66006 12.798C7.12806 12.45 7.36206 11.982 7.36206 11.394C7.36206 10.818 7.14606 10.362 6.71406 10.026C6.28206 9.69 5.58606 9.522 4.62606 9.522H3.47406V7.92L7.07406 3.636L7.38006 4.518H0.612056V2.556H9.19806V4.122L5.59806 8.406L4.37406 7.686H5.07606C6.62406 7.686 7.78206 8.034 8.55006 8.73C9.33006 9.414 9.72006 10.296 9.72006 11.376C9.72006 12.084 9.54006 12.738 9.18006 13.338C8.82006 13.938 8.26806 14.424 7.52406 14.796C6.79206 15.156 5.86206 15.336 4.73406 15.336Z" fill="black"/>
<path d="M9.91862 16.956L15.8586 -2.98023e-06H17.8746L11.9346 16.956H9.91862ZM21.8903 15.336C21.0023 15.336 20.1323 15.21 19.2803 14.958C18.4403 14.694 17.7323 14.334 17.1563 13.878L18.1643 12.06C18.6203 12.432 19.1723 12.732 19.8203 12.96C20.4683 13.188 21.1463 13.302 21.8543 13.302C22.6943 13.302 23.3483 13.134 23.8163 12.798C24.2843 12.45 24.5183 11.982 24.5183 11.394C24.5183 10.818 24.3023 10.362 23.8703 10.026C23.4383 9.69 22.7423 9.522 21.7823 9.522H20.6303V7.92L24.2303 3.636L24.5363 4.518H17.7683V2.556H26.3543V4.122L22.7543 8.406L21.5303 7.686H22.2323C23.7803 7.686 24.9383 8.034 25.7063 8.73C26.4863 9.414 26.8763 10.296 26.8763 11.376C26.8763 12.084 26.6963 12.738 26.3363 13.338C25.9763 13.938 25.4243 14.424 24.6803 14.796C23.9483 15.156 23.0183 15.336 21.8903 15.336Z" fill="#A0A0A2"/>
</svg>
