<svg width="345" height="22" viewBox="0 0 345 22" fill="none" xmlns="http://www.w3.org/2000/svg">
<path d="M0.63 17V15.434L5.634 10.682C6.054 10.286 6.366 9.938 6.57 9.638C6.774 9.338 6.906 9.062 6.966 8.81C7.038 8.546 7.074 8.3 7.074 8.072C7.074 7.496 6.876 7.052 6.48 6.74C6.084 6.416 5.502 6.254 4.734 6.254C4.122 6.254 3.564 6.362 3.06 6.578C2.568 6.794 2.142 7.124 1.782 7.568L0.144 6.308C0.636 5.648 1.296 5.138 2.124 4.778C2.964 4.406 3.9 4.22 4.932 4.22C5.844 4.22 6.636 4.37 7.308 4.67C7.992 4.958 8.514 5.372 8.874 5.912C9.246 6.452 9.432 7.094 9.432 7.838C9.432 8.246 9.378 8.654 9.27 9.062C9.162 9.458 8.958 9.878 8.658 10.322C8.358 10.766 7.92 11.264 7.344 11.816L3.042 15.902L2.556 15.02H9.918V17H0.63Z" fill="black"/>
<path d="M9.93656 18.8L15.8766 1.844H17.8926L11.9526 18.8H9.93656ZM21.9082 17.18C21.0203 17.18 20.1503 17.054 19.2983 16.802C18.4583 16.538 17.7503 16.178 17.1743 15.722L18.1823 13.904C18.6383 14.276 19.1903 14.576 19.8383 14.804C20.4863 15.032 21.1643 15.146 21.8723 15.146C22.7123 15.146 23.3663 14.978 23.8343 14.642C24.3023 14.294 24.5363 13.826 24.5363 13.238C24.5363 12.662 24.3203 12.206 23.8883 11.87C23.4563 11.534 22.7603 11.366 21.8003 11.366H20.6483V9.764L24.2483 5.48L24.5543 6.362H17.7863V4.4H26.3723V5.966L22.7723 10.25L21.5483 9.53H22.2503C23.7983 9.53 24.9563 9.878 25.7243 10.574C26.5043 11.258 26.8943 12.14 26.8943 13.22C26.8943 13.928 26.7143 14.582 26.3543 15.182C25.9943 15.782 25.4423 16.268 24.6983 16.64C23.9663 17 23.0363 17.18 21.9082 17.18Z" fill="#A0A0A2"/>
<path d="M309.598 17.18C308.614 17.18 307.672 17.042 306.772 16.766C305.872 16.478 305.158 16.112 304.63 15.668L305.44 13.85C305.944 14.246 306.568 14.576 307.312 14.84C308.056 15.104 308.818 15.236 309.598 15.236C310.258 15.236 310.792 15.164 311.2 15.02C311.608 14.876 311.908 14.684 312.1 14.444C312.292 14.192 312.388 13.91 312.388 13.598C312.388 13.214 312.25 12.908 311.974 12.68C311.698 12.44 311.338 12.254 310.894 12.122C310.462 11.978 309.976 11.846 309.436 11.726C308.908 11.606 308.374 11.468 307.834 11.312C307.306 11.144 306.82 10.934 306.376 10.682C305.944 10.418 305.59 10.07 305.314 9.638C305.038 9.206 304.9 8.654 304.9 7.982C304.9 7.298 305.08 6.674 305.44 6.11C305.812 5.534 306.37 5.078 307.114 4.742C307.87 4.394 308.824 4.22 309.976 4.22C310.732 4.22 311.482 4.316 312.226 4.508C312.97 4.7 313.618 4.976 314.17 5.336L313.432 7.154C312.868 6.818 312.286 6.572 311.686 6.416C311.086 6.248 310.51 6.164 309.958 6.164C309.31 6.164 308.782 6.242 308.374 6.398C307.978 6.554 307.684 6.758 307.492 7.01C307.312 7.262 307.222 7.55 307.222 7.874C307.222 8.258 307.354 8.57 307.618 8.81C307.894 9.038 308.248 9.218 308.68 9.35C309.124 9.482 309.616 9.614 310.156 9.746C310.696 9.866 311.23 10.004 311.758 10.16C312.298 10.316 312.784 10.52 313.216 10.772C313.66 11.024 314.014 11.366 314.278 11.798C314.554 12.23 314.692 12.776 314.692 13.436C314.692 14.108 314.506 14.732 314.134 15.308C313.774 15.872 313.216 16.328 312.46 16.676C311.704 17.012 310.75 17.18 309.598 17.18ZM318.632 14.858L318.686 12.032L323.708 7.388H326.408L322.142 11.672L320.954 12.662L318.632 14.858ZM316.796 17V3.644H319.046V17H316.796ZM324.05 17L320.54 12.662L321.962 10.862L326.786 17H324.05ZM328.24 17V7.388H330.49V17H328.24ZM329.374 5.804C328.954 5.804 328.606 5.672 328.33 5.408C328.066 5.144 327.934 4.826 327.934 4.454C327.934 4.07 328.066 3.752 328.33 3.5C328.606 3.236 328.954 3.104 329.374 3.104C329.794 3.104 330.136 3.23 330.4 3.482C330.676 3.722 330.814 4.028 330.814 4.4C330.814 4.796 330.682 5.132 330.418 5.408C330.154 5.672 329.806 5.804 329.374 5.804ZM338.771 17.126C337.991 17.126 337.277 16.946 336.629 16.586C335.993 16.226 335.483 15.686 335.099 14.966C334.727 14.234 334.541 13.31 334.541 12.194C334.541 11.066 334.721 10.142 335.081 9.422C335.453 8.702 335.957 8.168 336.593 7.82C337.229 7.46 337.955 7.28 338.771 7.28C339.719 7.28 340.553 7.484 341.273 7.892C342.005 8.3 342.581 8.87 343.001 9.602C343.433 10.334 343.649 11.198 343.649 12.194C343.649 13.19 343.433 14.06 343.001 14.804C342.581 15.536 342.005 16.106 341.273 16.514C340.553 16.922 339.719 17.126 338.771 17.126ZM333.443 20.492V7.388H335.585V9.656L335.513 12.212L335.693 14.768V20.492H333.443ZM338.519 15.2C339.059 15.2 339.539 15.08 339.959 14.84C340.391 14.6 340.733 14.252 340.985 13.796C341.237 13.34 341.363 12.806 341.363 12.194C341.363 11.57 341.237 11.036 340.985 10.592C340.733 10.136 340.391 9.788 339.959 9.548C339.539 9.308 339.059 9.188 338.519 9.188C337.979 9.188 337.493 9.308 337.061 9.548C336.629 9.788 336.287 10.136 336.035 10.592C335.783 11.036 335.657 11.57 335.657 12.194C335.657 12.806 335.783 13.34 336.035 13.796C336.287 14.252 336.629 14.6 337.061 14.84C337.493 15.08 337.979 15.2 338.519 15.2Z" fill="black"/>
</svg>
